<svg width="406" height="407" viewBox="0 0 406 407" fill="none" xmlns="http://www.w3.org/2000/svg">
<path d="M109.808 101.637C100.823 105.556 91.9139 110.38 85.6359 117.917C79.358 125.454 76.2002 136.27 79.997 145.352C85.0344 157.449 100.974 164.496 101.049 177.61C101.086 186.994 92.4402 194.154 83.7187 197.583C74.9972 201.013 65.3359 202.219 57.4039 207.231C45.4118 214.768 39.8106 229.352 37.5174 243.333C35.1491 257.842 36.0889 274.386 46.3517 284.938C59.0956 298.014 80.1474 296.545 98.1918 293.756C122.251 290.025 146.198 285.654 170.182 281.282C222.699 271.672 275.215 262.1 327.695 252.491C333.333 251.473 339.198 250.343 343.747 246.876C352.844 240.017 353.596 225.885 348.333 215.823C343.07 205.723 333.296 198.865 323.597 192.948C313.898 187.032 303.635 181.416 296.38 172.636C289.125 163.855 285.516 150.891 291.004 140.943C295.666 132.501 305.665 127.979 310.026 119.387C315.778 108.043 309.161 93.5723 298.711 86.3368C288.222 79.0258 157.212 80.8347 109.808 101.637Z" fill="#F7F7F7"/>
<path d="M383.933 371.99H22.0669C19.1346 371.99 16.7287 369.579 16.7287 366.639V331.102C16.7287 328.163 19.1346 325.751 22.0669 325.751H383.971C386.903 325.751 389.309 328.163 389.309 331.102V366.639C389.271 369.579 386.865 371.99 383.933 371.99Z" fill="#F2F2F2"/>
<path d="M358.408 303.63C354.799 286.784 343.709 271.71 328.747 263.306C336.754 278.494 346.341 292.814 357.318 306.004L358.408 303.63Z" fill="#1A87D8"/>
<path d="M362.43 309.961C348.145 289.95 341.002 264.965 342.506 240.394C351.754 263.043 358.746 286.634 363.332 310.714L362.43 309.961Z" fill="#2A94F4"/>
<path d="M358.333 310.639C357.881 298.316 357.468 285.917 359.385 273.745C361.302 261.573 365.776 249.514 374.009 240.394C375.249 265.605 369.197 291.118 356.716 313.051L358.333 310.639Z" fill="#1A87D8"/>
<path d="M358.934 311.732C350.889 288.442 352.205 262.063 362.543 239.715C369.009 263.08 363.295 287.877 357.581 311.43L358.934 311.732Z" fill="#B0E1FF"/>
<path d="M359.987 303.102C362.205 282.677 375.813 263.872 394.459 255.43C386.903 275.818 373.934 294.133 357.28 308.076L359.987 303.102Z" fill="#2A94F4"/>
<path d="M379.196 299.522L376.903 339.167C376.903 341.089 375.362 342.634 373.445 342.634H346.002C344.085 342.634 342.544 341.089 342.544 339.167L342.017 330.198L340.213 299.522C340.213 297.6 341.754 296.055 343.672 296.055H375.738C376.979 296.055 378.106 296.733 378.708 297.713C379.046 298.241 379.196 298.881 379.196 299.522Z" fill="#CCE9FF"/>
<path d="M379.196 299.522L376.903 339.167C376.903 341.089 375.362 342.634 373.445 342.634H346.002C344.085 342.634 342.544 341.089 342.544 339.167L342.017 330.198C354.799 326.542 367.994 310.677 378.708 297.713C379.046 298.241 379.196 298.881 379.196 299.522Z" fill="#CCE9FF"/>
<path d="M33.9085 311.694C31.7657 301.67 25.1494 292.663 16.2024 287.651C20.9767 296.695 26.6907 305.25 33.2319 313.126L33.9085 311.694Z" fill="#1A87D8"/>
<path d="M36.3144 315.5C27.7809 303.554 23.533 288.631 24.4352 273.971C29.9613 287.5 34.1341 301.557 36.8407 315.915L36.3144 315.5Z" fill="#CCE9FF"/>
<path d="M33.8709 315.877C33.6078 308.529 33.3446 301.142 34.51 293.869C35.6754 286.596 38.3069 279.436 43.2315 273.971C43.9833 289.008 40.3369 304.233 32.8935 317.309L33.8709 315.877Z" fill="#1A87D8"/>
<path d="M34.2093 316.556C29.3974 302.687 30.1869 286.935 36.352 273.594C40.1865 287.538 36.8032 302.311 33.3822 316.367L34.2093 316.556Z" fill="#2A94F4"/>
<path d="M34.8483 311.393C36.1641 299.22 44.2841 287.99 55.4115 282.94C50.9004 295.075 43.1563 306.041 33.2319 314.332L34.8483 311.393Z" fill="#B0E1FF"/>
<path d="M46.3141 309.282L44.9231 332.949C44.9231 334.079 43.9833 335.021 42.8556 335.021H26.5028C25.375 335.021 24.4352 334.079 24.4352 332.949L24.1344 327.597L23.0818 309.282C23.0818 308.152 24.0217 307.21 25.1494 307.21H44.2841C45.0359 307.21 45.675 307.624 46.0509 308.227C46.2013 308.529 46.3141 308.868 46.3141 309.282Z" fill="#CCE9FF"/>
<path d="M46.3141 309.282L44.9232 332.949C44.9232 334.079 43.9833 335.021 42.8556 335.021H26.5028C25.375 335.021 24.4352 334.079 24.4352 332.949L24.1344 327.597C31.7657 325.412 39.6226 315.953 46.0133 308.227C46.2013 308.529 46.3141 308.868 46.3141 309.282Z" fill="#CCE9FF"/>
<path d="M147.626 146.294C173.308 146.294 194.128 125.423 194.128 99.6773C194.128 73.9317 173.308 53.0607 147.626 53.0607C121.944 53.0607 101.124 73.9317 101.124 99.6773C101.124 125.423 121.944 146.294 147.626 146.294Z" stroke="#D3D3D3" stroke-miterlimit="10" stroke-dasharray="12.14 12.14"/>
<path d="M269.276 228.372H138.717C136.236 228.372 134.206 226.337 134.206 223.85V181.982C134.206 179.495 136.236 177.46 138.717 177.46H269.276C271.757 177.46 273.787 179.495 273.787 181.982V223.85C273.787 226.337 271.757 228.372 269.276 228.372Z" stroke="#FFE9CC" stroke-width="2" stroke-miterlimit="10"/>
<path d="M257.209 127.037H130.747C128.341 127.037 126.386 125.077 126.386 122.665V82.116C126.386 79.7042 128.341 77.7445 130.747 77.7445H257.171C259.577 77.7445 261.532 79.7042 261.532 82.116V122.665C261.569 125.039 259.614 127.037 257.209 127.037Z" stroke="#FFE9CC" stroke-width="2" stroke-miterlimit="10"/>
<path d="M323.935 213.637C329.086 231.575 336.303 268.092 336.303 268.092L323.935 329.783H314.65C314.65 329.783 315.665 270.843 317.733 268.432C313.259 261.874 307.056 231.877 307.056 231.877L315.327 209.454L323.935 213.637Z" fill="#0A3E5B"/>
<path d="M317.733 213.976L299.839 337.358H289.876C289.876 337.358 286.794 283.242 289.876 275.667C292.959 268.092 285.403 209.492 285.403 209.492L317.733 213.976Z" fill="#0B4870"/>
<path d="M297.433 346.176C300.854 347.382 312.319 352.206 314.086 352.884C315.251 354.278 315.853 357.029 315.853 357.029C315.853 357.029 296.267 356.351 294.35 356.351C292.282 356.351 288.147 356.351 288.147 356.351L289.914 343.764C291.418 343.915 297.433 346.176 297.433 346.176Z" fill="#0A3E5B"/>
<path d="M321.304 338.601C324.311 340.599 334.236 348.173 335.777 349.266C336.566 350.887 336.454 353.713 336.454 353.713C336.454 353.713 317.657 348.136 315.815 347.646C313.823 347.118 309.838 346.101 309.838 346.101L314.688 334.343C316.041 334.908 321.304 338.601 321.304 338.601Z" fill="#0A3E5B"/>
<path d="M298.485 334.946L297.809 344.593L300.891 348.739H292.997L290.215 344.932V334.268L298.485 334.946Z" fill="#FFE3CA"/>
<path d="M323.296 327.409L321.492 336.906L324.086 341.352L316.229 340.486L313.936 336.378L315.176 325.788L323.296 327.409Z" fill="#FFE3CA"/>
<path d="M302.094 332.007H286.982V338.903H302.094V332.007Z" fill="#145C84"/>
<path d="M326.824 326.342L311.808 324.636L311.034 331.488L326.049 333.194L326.824 326.342Z" fill="#145C84"/>
<path d="M321.68 165.287C324.8 175.99 324.424 184.281 330.815 186.165C337.206 188.049 340.213 184.281 341.341 183.527C342.469 182.773 345.1 170.714 345.1 170.714L339.085 163.177L321.68 165.287Z" fill="#F9D7BB"/>
<path d="M310.778 126.698L322.92 136.684L329.161 158.202L321.981 166.267L310.778 126.698Z" fill="#2390E2"/>
<path d="M318.823 164.27C318.823 164.27 320.59 167.586 321.755 166.87C322.92 166.154 336.078 156.507 336.078 156.507L333.973 153.869L318.823 164.27Z" fill="#1C88C9"/>
<path d="M323.672 164.684L326.68 158.278L329.311 156.017V161.669L323.672 164.684Z" fill="#F9D7BB"/>
<path d="M122.552 324.469H71.8018V336.152H122.552V324.469Z" fill="#072C3D"/>
<path d="M126.236 322.585L70.7869 320.701L67.2907 272.464H130.446L126.236 322.585Z" fill="#2A94F4"/>
<path d="M51.3139 324.62C60.2233 324.997 91.8387 330.612 107.515 333.514C112.966 334.494 116.462 335.172 116.462 335.172C116.462 335.172 120.371 336.604 125.146 338.3C129.544 339.883 134.657 341.692 138.19 342.86C139.544 343.312 139.431 345.234 138.078 345.573C134.732 346.365 127.213 346.251 121.762 344.367C117.289 346.365 115.184 346.478 113.003 344.857C112.289 344.33 111.462 343.877 110.597 343.538C109.019 342.897 107.252 342.483 105.56 342.257C101.876 341.767 98.6054 342.031 98.6054 342.031C85.8991 344.48 56.8776 352.733 39.585 342.521C22.2924 332.308 39.3218 324.13 51.3139 324.62Z" fill="#FFE3CA"/>
<path d="M51.3139 324.62C60.2233 324.997 91.8387 330.612 107.515 333.514L105.522 342.295C101.838 341.805 98.5678 342.068 98.5678 342.068C85.8615 344.518 56.84 352.771 39.5474 342.558C22.2548 332.346 39.3219 324.13 51.3139 324.62Z" fill="#0A3E5B"/>
<path d="M116.875 340.749C118.642 341.126 121.198 339.016 125.146 338.3C129.544 339.883 134.657 341.692 138.19 342.86C139.544 343.312 139.431 345.234 138.078 345.573C134.732 346.365 127.213 346.251 121.762 344.367C117.289 346.365 115.184 346.478 113.003 344.857C112.289 344.33 111.462 343.877 110.597 343.538C111.387 341.352 114.808 341.013 116.875 340.749Z" fill="#2A94F4"/>
<path d="M136.085 272.652C135.596 287.274 128.755 304.873 124.92 310.601C123.416 312.862 122.401 314.106 122.401 314.106H109.733C109.733 314.106 109.77 314.031 109.846 313.918C109.846 313.88 109.883 313.842 109.883 313.842C110.522 312.712 113.079 308.076 115.259 301.858C117.853 294.472 119.92 284.825 117.74 276.044H77.9294C73.6063 293.379 85.9367 314.106 85.9367 314.106H73.268C73.268 314.106 60.2609 293.002 59.6219 272.652C58.9452 252.302 81.6135 248.534 93.7935 247.78H101.914C102.327 247.818 102.778 247.855 103.229 247.893C115.635 249.174 136.724 253.018 136.085 272.652Z" fill="#2A94F4"/>
<path d="M104.695 209.341C110.301 209.341 114.845 204.786 114.845 199.166C114.845 193.547 110.301 188.991 104.695 188.991C99.0897 188.991 94.5454 193.547 94.5454 199.166C94.5454 204.786 99.0897 209.341 104.695 209.341Z" fill="#0E538C"/>
<path d="M78.0046 221.099C78.0046 211.941 87.102 201.616 98.3046 201.616C109.507 201.616 118.605 211.941 118.605 221.099C118.605 230.256 109.507 238.359 98.3046 238.359C87.102 238.359 78.0046 230.294 78.0046 221.099Z" fill="#0E538C"/>
<path d="M91.9891 240.771L93.7935 251.925L98.3046 261.535L102.064 251.925L103.568 240.62L91.9891 240.771Z" fill="#FCD2B1"/>
<path d="M110.898 226.488C110.898 234.176 105.259 243.446 98.3046 243.446C91.35 243.446 85.7111 234.176 85.7111 226.488C85.7111 218.8 91.35 212.544 98.3046 212.544C105.259 212.544 110.898 218.8 110.898 226.488Z" fill="#FFE3CA"/>
<path d="M108.267 209.53H88.3426V222.719H108.267V209.53Z" fill="#0E538C"/>
<path d="M117.853 289.761C120.823 281.358 121.123 276.798 120.447 274.725" stroke="#3CA8F7" stroke-width="4" stroke-miterlimit="10" stroke-linecap="round"/>
<path d="M76.3881 289.761C73.4183 281.358 73.1176 276.798 73.7943 274.725" stroke="#3CA8F7" stroke-width="4" stroke-miterlimit="10" stroke-linecap="round"/>
<path d="M124.544 328.615H71.1252C69.4711 328.615 68.1554 327.296 68.1554 325.638L66.6517 289.385C66.6517 287.726 67.9674 286.407 69.6215 286.407H126.086C127.74 286.407 129.055 287.726 129.055 289.385L127.552 325.638C127.552 327.296 126.198 328.615 124.544 328.615Z" fill="#CCE9FF"/>
<path d="M149.243 328.615C142.551 334.494 115.71 352.206 102.365 360.949C97.7407 363.964 94.7333 365.923 94.7333 365.923C94.7333 365.923 90.8989 367.581 86.275 369.654C81.9894 371.538 77.0272 373.762 73.6815 375.344C72.4033 375.947 71.1252 374.478 71.9146 373.309C73.7943 370.408 79.3204 365.32 84.5833 362.946C86.463 358.424 87.8915 356.879 90.5981 356.54C91.5004 356.426 92.4026 356.163 93.2672 355.824C94.8461 355.183 96.425 354.241 97.7783 353.261C100.786 351.075 103.004 348.626 103.004 348.626C110.522 338.074 125.935 312.071 145.483 307.549C165.031 303.027 158.265 320.701 149.243 328.615Z" fill="#FFE3CA"/>
<path d="M149.243 328.615C142.551 334.494 115.71 352.206 102.365 360.949L97.7783 353.223C100.786 351.037 103.004 348.588 103.004 348.588C110.522 338.036 125.935 312.033 145.483 307.511C165.031 302.989 158.265 320.701 149.243 328.615Z" fill="#0A3E5B"/>
<path d="M90.5981 362.155C89.0568 363.097 88.6433 366.413 86.275 369.654C81.9894 371.538 77.0272 373.762 73.6815 375.344C72.4033 375.947 71.1252 374.478 71.9146 373.309C73.7943 370.408 79.3204 365.32 84.5833 362.946C86.463 358.424 87.8915 356.879 90.5981 356.54C91.5004 356.426 92.4026 356.163 93.2672 355.824C94.1694 357.934 91.9515 360.534 90.5981 362.155Z" fill="#2A94F4"/>
<path d="M97.7407 313.164C100.855 313.164 103.38 310.633 103.38 307.511C103.38 304.389 100.855 301.858 97.7407 301.858C94.6265 301.858 92.1019 304.389 92.1019 307.511C92.1019 310.633 94.6265 313.164 97.7407 313.164Z" fill="#3CA8F7"/>
<path d="M301.493 125.153C293.786 127.074 277.96 134.423 277.02 135.704C276.08 136.986 271.531 157.486 271.531 157.486C271.531 157.486 276.982 164.647 280.065 164.948C280.629 168.679 283.937 226.111 283.937 226.111L324.838 214.994C324.838 214.994 326.003 136.797 310.703 126.095C305.139 123.796 301.493 125.153 301.493 125.153Z" fill="#2A94F4"/>
<path d="M311.417 121.648L310.44 126.17L308.259 133.782L303.41 124.625L303.109 115.694L310.327 114.488L311.417 121.648Z" fill="#FCD2B1"/>
<path d="M352.393 184.808L324.988 192.684L324.8 192.496C323.973 191.667 323.559 190.499 323.672 189.293L328.334 139.812L355.25 133.895C356.528 133.632 357.844 133.971 358.784 134.838L352.393 184.808Z" fill="#A4D7F7"/>
<path d="M353.897 186.316L324.988 192.684L329.837 141.319L358.746 134.951L353.897 186.316Z" fill="#CCE9FF"/>
<path d="M271.907 155.564C268.825 169.433 278.636 199.43 303.974 184.846C325.815 172.297 324.537 172.598 324.537 172.598C324.537 172.598 331.717 170.601 334.311 166.455C334.198 165.777 334.161 156.695 334.161 156.695L323.146 163.629L320.101 167.963C320.101 167.963 283.749 187.635 285.253 163.629L271.907 155.564Z" fill="#FFE3CA"/>
<path d="M355.851 164.684L357.506 167.699L354.799 175.425L348.859 168.076L352.994 165.438L355.664 166.908L355.851 164.684Z" fill="#FFE3CA"/>
<path d="M271.419 153.002C271.419 153.002 269.163 156.017 270.291 156.77C271.419 157.524 285.704 165.438 285.704 165.438L287.207 162.423L271.419 153.002Z" fill="#2390E2"/>
<path d="M347.606 164.248C348.618 161.208 348.034 158.274 346.301 157.693C344.568 157.113 342.343 159.108 341.33 162.148C340.318 165.188 340.901 168.123 342.634 168.703C344.367 169.283 346.593 167.289 347.606 164.248Z" fill="#A4D7F7"/>
<path d="M322.281 102.24C322.544 109.664 321.529 117.088 320.665 119.387C319.8 121.685 306.718 124.399 303.335 120.027C299.951 115.656 298.786 101.524 299.726 100.506C300.666 99.4889 322.093 96.4364 322.281 102.24Z" fill="#FFE3CA"/>
<path d="M303.974 97.6046C309.237 100.959 310.891 102.165 314.725 101.411C318.56 100.619 320.966 104.727 324.462 104.275C327.958 103.823 333.597 90.4068 323.935 90.1053C314.274 89.8038 309.537 91.6127 308.259 92.291C305.628 90.4444 303.974 97.6046 303.974 97.6046Z" fill="#0E538C"/>
<path d="M306.793 92.1403C304.989 90.143 298.899 90.7082 297.433 94.929C295.966 99.1874 294.839 111.774 296.493 113.018C298.147 114.261 301.831 117.126 301.831 117.126L302.771 106.611L306.417 99.1497L308.41 96.7755L306.793 92.1403Z" fill="#0E538C"/>
<path d="M301.981 112.415C303.497 112.415 304.726 110.829 304.726 108.872C304.726 106.916 303.497 105.33 301.981 105.33C300.466 105.33 299.237 106.916 299.237 108.872C299.237 110.829 300.466 112.415 301.981 112.415Z" fill="#FFE3CA"/>
<path d="M265.479 175.462H132.476C129.995 175.462 127.965 177.497 127.965 179.984V218.951C127.965 220.722 128.98 222.267 130.484 222.983C130.371 226.111 129.92 228.259 129.281 229.691C129.018 230.294 129.694 230.897 130.258 230.558C132.815 228.975 135.409 225.546 136.799 223.511H265.516C267.998 223.511 270.028 221.476 270.028 218.989V179.984C269.99 177.497 267.96 175.462 265.479 175.462Z" fill="#FF7F50"/>
<path d="M147.626 209.341C154.997 209.341 160.971 203.352 160.971 195.963C160.971 188.574 154.997 182.585 147.626 182.585C140.256 182.585 134.281 188.574 134.281 195.963C134.281 203.352 140.256 209.341 147.626 209.341Z" fill="#FFE9CC"/>
<path d="M261.381 188.991H169.731C169.016 188.991 168.415 188.388 168.415 187.672V183.904C168.415 183.188 169.016 182.585 169.731 182.585H261.381C262.096 182.585 262.697 183.188 262.697 183.904V187.672C262.697 188.388 262.096 188.991 261.381 188.991Z" fill="#FFE9CC"/>
<path d="M239.427 199.091H169.543C168.903 199.091 168.377 198.563 168.377 197.923V193.815C168.377 193.174 168.903 192.647 169.543 192.647H239.427C240.066 192.647 240.593 193.174 240.593 193.815V197.923C240.593 198.563 240.066 199.091 239.427 199.091Z" fill="#FFE9CC"/>
<path d="M246.419 209.228H169.618C168.941 209.228 168.415 208.701 168.415 208.022V204.028C168.415 203.349 168.941 202.822 169.618 202.822H246.419C247.096 202.822 247.622 203.349 247.622 204.028V208.022C247.622 208.663 247.096 209.228 246.419 209.228Z" fill="#FFE9CC"/>
<path d="M136.499 73.5992H269.501C271.982 73.5992 274.012 75.6342 274.012 78.1214V117.088C274.012 118.859 272.997 120.404 271.494 121.12C271.606 124.248 272.058 126.396 272.697 127.828C272.96 128.431 272.283 129.034 271.719 128.695C269.163 127.112 266.569 123.683 265.178 121.648H136.499C134.018 121.648 131.988 119.613 131.988 117.126V78.1214C131.988 75.6342 134.018 73.5992 136.499 73.5992Z" fill="#FF7F50"/>
<path d="M152.588 107.44C159.959 107.44 165.934 101.451 165.934 94.0622C165.934 86.6736 159.959 80.684 152.588 80.684C145.218 80.684 139.243 86.6736 139.243 94.0622C139.243 101.451 145.218 107.44 152.588 107.44Z" fill="#FFE9CC"/>
<path d="M266.344 87.0905H174.693C173.979 87.0905 173.377 86.4875 173.377 85.7715V82.003C173.377 81.287 173.979 80.684 174.693 80.684H266.344C267.058 80.684 267.659 81.287 267.659 82.003V85.7715C267.659 86.4875 267.095 87.0905 266.344 87.0905Z" fill="#FFE9CC"/>
<path d="M244.389 97.1901H174.505C173.866 97.1901 173.339 96.6625 173.339 96.0219V91.9519C173.339 91.3112 173.866 90.7836 174.505 90.7836H244.389C245.029 90.7836 245.555 91.3112 245.555 91.9519V96.0595C245.555 96.7002 245.029 97.1901 244.389 97.1901Z" fill="#FFE9CC"/>
<path d="M251.382 107.327H174.58C173.903 107.327 173.377 106.8 173.377 106.121V102.127C173.377 101.449 173.903 100.921 174.58 100.921H251.382C252.058 100.921 252.585 101.449 252.585 102.127V106.121C252.585 106.762 252.058 107.327 251.382 107.327Z" fill="#FFE9CC"/>
</svg>
