<svg width="300" height="300" viewBox="0 0 300 300" fill="none" xmlns="http://www.w3.org/2000/svg">
<g clip-path="url(#clip0_3_1419)">
<path d="M151.596 296.808C231.795 296.808 296.809 231.795 296.809 151.596C296.809 71.3969 231.795 6.38293 151.596 6.38293C71.3969 6.38293 6.38298 71.3969 6.38298 151.596C6.38298 231.795 71.3969 296.808 151.596 296.808Z" fill="#68A8C1"/>
<path d="M293.617 150C293.598 170.659 289.17 191.076 280.631 209.888C272.091 228.7 259.636 245.473 244.097 259.087C228.558 272.701 210.293 282.843 190.522 288.835C170.751 294.827 149.929 296.531 129.447 293.834C108.964 291.137 89.293 284.1 71.747 273.194C54.2009 262.289 39.1839 247.764 27.6989 230.592C16.2139 213.419 8.52534 193.994 5.14667 173.613C1.768 153.232 2.77703 132.364 8.10638 112.404C36.0555 139.339 73.3496 154.403 112.165 154.436C122.634 154.592 133.05 152.923 142.947 149.505C166.037 140.952 182.394 120 193.324 97.9468C199.707 84.9255 204.878 71.1063 213.431 59.3457C220.292 50.0089 229.151 42.3219 239.362 36.8457C256.308 50.4344 269.982 67.6589 279.373 87.2453C288.765 106.832 293.632 128.279 293.617 150Z" fill="#4F84A6"/>
<path opacity="0.5" d="M22.3404 153.192C22.3415 116.061 36.5661 80.3407 62.0905 53.3739C87.6148 26.4071 122.5 10.2423 159.574 8.20216C156.936 8.05323 154.277 7.97876 151.596 7.97876C113.083 7.97876 76.1475 23.2779 48.9148 50.5106C21.6821 77.7433 6.38298 114.679 6.38298 153.192C6.38298 191.704 21.6821 228.64 48.9148 255.872C76.1475 283.105 113.083 298.404 151.596 298.404C154.277 298.404 156.936 298.33 159.574 298.181C122.5 296.141 87.6148 279.976 62.0905 253.009C36.5661 226.042 22.3415 190.322 22.3404 153.192Z" fill="#8A7683"/>
<path opacity="0.5" d="M277.66 150C277.659 187.131 263.434 222.851 237.91 249.818C212.385 276.784 177.5 292.949 140.426 294.989C143.064 295.128 145.723 295.202 148.404 295.213C186.917 295.213 223.852 279.914 251.085 252.681C278.318 225.448 293.617 188.513 293.617 150C293.617 111.487 278.318 74.5517 251.085 47.3191C223.852 20.0864 186.917 4.78723 148.404 4.78723C145.723 4.78723 143.064 4.8617 140.426 5.01064C177.5 7.05079 212.385 23.2156 237.91 50.1824C263.434 77.1492 277.659 112.869 277.66 150Z" fill="#3F5A7C"/>
<path d="M150 300C120.333 300 91.3319 291.203 66.6645 274.72C41.9971 258.238 22.7712 234.811 11.4181 207.403C0.0649474 179.994 -2.90555 149.834 2.88223 120.737C8.67001 91.6394 22.9561 64.9119 43.934 43.934C64.9119 22.9562 91.6393 8.67006 120.736 2.88228C149.834 -2.90551 179.994 0.0649932 207.403 11.4181C234.811 22.7713 258.238 41.9972 274.72 66.6645C291.203 91.3319 300 120.333 300 150C299.954 189.768 284.135 227.894 256.015 256.015C227.894 284.135 189.768 299.954 150 300ZM150 9.57454C122.226 9.57454 95.0766 17.8103 71.9838 33.2405C48.8909 48.6707 30.8922 70.6021 20.2637 96.2615C9.63527 121.921 6.85438 150.156 12.2727 177.396C17.6911 204.636 31.0653 229.657 50.7042 249.296C70.343 268.935 95.3645 282.309 122.604 287.727C149.844 293.146 178.079 290.365 203.739 279.736C229.398 269.108 251.329 251.109 266.76 228.016C282.19 204.923 290.426 177.774 290.426 150C290.383 112.77 275.575 77.0766 249.249 50.7509C222.923 24.4251 187.23 9.61677 150 9.57454Z" fill="#2E576D"/>
<path d="M149.106 272.059C124.646 272.059 100.735 264.805 80.3972 251.215C60.0594 237.625 44.2083 218.31 34.8485 195.711C25.4886 173.112 23.0405 148.246 27.8136 124.256C32.5868 100.265 44.3668 78.2296 61.664 60.9346C78.9612 43.6396 100.999 31.8625 124.989 27.0924C148.98 22.3224 173.846 24.7737 196.444 34.1365C219.041 43.4992 238.355 59.3528 251.942 79.6924C265.529 100.032 272.78 123.944 272.777 148.404C272.734 181.189 259.691 212.619 236.507 235.8C213.323 258.981 181.891 272.021 149.106 272.059ZM149.106 27.9096C125.279 27.9096 101.986 34.9751 82.1736 48.2128C62.3614 61.4504 46.9193 80.2657 37.8001 102.279C28.6809 124.293 26.294 148.517 30.9415 171.887C35.5889 195.257 47.0618 216.724 63.9094 233.574C80.7571 250.424 102.223 261.9 125.592 266.55C148.962 271.201 173.186 268.817 195.201 259.701C217.215 250.584 236.033 235.145 249.273 215.334C262.513 195.524 269.582 172.232 269.585 148.404C269.551 116.46 256.848 85.834 234.261 63.2446C211.675 40.6552 181.05 27.9476 149.106 27.9096Z" fill="#2E576D"/>
<path d="M64.5554 205.557C65.8068 205.545 66.8115 204.521 66.7995 203.27C66.7875 202.018 65.7633 201.014 64.5119 201.026C63.2605 201.038 62.2558 202.062 62.2678 203.313C62.2798 204.565 63.304 205.569 64.5554 205.557Z" fill="white"/>
<path d="M64.6209 212.386C65.8723 212.374 66.8771 211.35 66.865 210.098C66.853 208.847 65.8288 207.842 64.5774 207.854C63.326 207.866 62.3213 208.891 62.3333 210.142C62.3453 211.393 63.3695 212.398 64.6209 212.386Z" fill="white"/>
<path d="M64.6863 219.199C65.9377 219.187 66.9425 218.163 66.9304 216.911C66.9184 215.66 65.8942 214.655 64.6428 214.667C63.3914 214.679 62.3867 215.704 62.3987 216.955C62.4107 218.206 63.4349 219.211 64.6863 219.199Z" fill="white"/>
<path d="M58.1759 197.576C59.4273 197.564 60.432 196.54 60.42 195.289C60.408 194.037 59.3838 193.033 58.1324 193.045C56.881 193.057 55.8763 194.081 55.8883 195.332C55.9003 196.584 56.9245 197.588 58.1759 197.576Z" fill="white"/>
<path d="M58.2414 204.405C59.4928 204.393 60.4976 203.369 60.4855 202.118C60.4735 200.866 59.4493 199.861 58.1979 199.874C56.9465 199.886 55.9418 200.91 55.9538 202.161C55.9658 203.413 56.99 204.417 58.2414 204.405Z" fill="white"/>
<path d="M58.3069 211.234C59.5583 211.222 60.563 210.198 60.551 208.946C60.5389 207.695 59.5147 206.69 58.2634 206.702C57.012 206.714 56.0072 207.739 56.0192 208.99C56.0313 210.241 57.0555 211.246 58.3069 211.234Z" fill="white"/>
<g opacity="0.5">
<path opacity="0.5" d="M249.663 101.833C250.914 101.821 251.919 100.797 251.907 99.5455C251.895 98.2941 250.871 97.2894 249.619 97.3014C248.368 97.3134 247.363 98.3376 247.375 99.589C247.387 100.84 248.411 101.845 249.663 101.833Z" fill="#3F5A7C"/>
<path opacity="0.5" d="M249.728 108.662C250.98 108.65 251.985 107.626 251.973 106.374C251.961 105.123 250.936 104.118 249.685 104.13C248.434 104.142 247.429 105.166 247.441 106.418C247.453 107.669 248.477 108.674 249.728 108.662Z" fill="#3F5A7C"/>
<path opacity="0.5" d="M249.794 115.475C251.045 115.463 252.05 114.439 252.038 113.187C252.026 111.936 251.002 110.931 249.75 110.943C248.499 110.955 247.494 111.979 247.506 113.231C247.518 114.482 248.542 115.487 249.794 115.475Z" fill="#3F5A7C"/>
<path opacity="0.5" d="M243.283 93.8521C244.535 93.8401 245.54 92.8159 245.528 91.5645C245.515 90.3131 244.491 89.3084 243.24 89.3204C241.989 89.3324 240.984 90.3566 240.996 91.608C241.008 92.8594 242.032 93.8641 243.283 93.8521Z" fill="#3F5A7C"/>
<path opacity="0.5" d="M243.349 100.681C244.6 100.669 245.605 99.6448 245.593 98.3934C245.581 97.142 244.557 96.1373 243.305 96.1493C242.054 96.1613 241.049 97.1855 241.061 98.4369C241.073 99.6883 242.098 100.693 243.349 100.681Z" fill="#3F5A7C"/>
<path opacity="0.5" d="M243.414 107.494C244.666 107.482 245.67 106.458 245.658 105.206C245.646 103.955 244.622 102.95 243.371 102.962C242.119 102.974 241.115 103.998 241.127 105.25C241.139 106.501 242.163 107.506 243.414 107.494Z" fill="#3F5A7C"/>
</g>
<g opacity="0.5">
<path opacity="0.5" d="M240.095 207.16C241.346 207.147 242.351 206.123 242.339 204.872C242.327 203.62 241.302 202.616 240.051 202.628C238.8 202.64 237.795 203.664 237.807 204.915C237.819 206.167 238.843 207.172 240.095 207.16Z" fill="#3F5A7C"/>
<path opacity="0.5" d="M240.16 213.988C241.411 213.976 242.416 212.952 242.404 211.701C242.392 210.449 241.368 209.445 240.117 209.457C238.865 209.469 237.86 210.493 237.872 211.744C237.884 212.996 238.909 214 240.16 213.988Z" fill="#3F5A7C"/>
<path opacity="0.5" d="M240.226 220.801C241.477 220.789 242.482 219.765 242.47 218.514C242.458 217.262 241.433 216.257 240.182 216.27C238.931 216.282 237.926 217.306 237.938 218.557C237.95 219.809 238.974 220.813 240.226 220.801Z" fill="#3F5A7C"/>
<path opacity="0.5" d="M233.715 199.179C234.966 199.167 235.971 198.142 235.959 196.891C235.947 195.64 234.923 194.635 233.672 194.647C232.42 194.659 231.415 195.683 231.427 196.934C231.439 198.186 232.464 199.191 233.715 199.179Z" fill="#3F5A7C"/>
<path opacity="0.5" d="M233.765 206.007C235.016 205.995 236.021 204.971 236.009 203.72C235.997 202.468 234.973 201.464 233.721 201.476C232.47 201.488 231.465 202.512 231.477 203.763C231.489 205.015 232.513 206.019 233.765 206.007Z" fill="#3F5A7C"/>
<path opacity="0.5" d="M233.83 212.82C235.081 212.808 236.086 211.784 236.074 210.533C236.062 209.281 235.038 208.277 233.787 208.289C232.535 208.301 231.53 209.325 231.542 210.576C231.554 211.828 232.579 212.832 233.83 212.82Z" fill="#3F5A7C"/>
</g>
<path d="M62.6803 88.7442C63.3772 87.7047 63.0996 86.2971 62.0601 85.6002C61.0206 84.9033 59.6131 85.181 58.9162 86.2204C58.2192 87.2599 58.4969 88.6675 59.5364 89.3644C60.5758 90.0613 61.9834 89.7836 62.6803 88.7442Z" fill="white"/>
<path d="M58.8877 94.3989C59.5846 93.3595 59.3069 91.9519 58.2674 91.255C57.228 90.5581 55.8204 90.8358 55.1235 91.8752C54.4266 92.9147 54.7042 94.3223 55.7437 95.0192C56.7831 95.7161 58.1907 95.4384 58.8877 94.3989Z" fill="white"/>
<path d="M55.095 100.07C55.7919 99.0304 55.5142 97.6228 54.4747 96.9259C53.4353 96.229 52.0277 96.5067 51.3308 97.5461C50.6339 98.5856 50.9115 99.9932 51.951 100.69C52.9905 101.387 54.3981 101.109 55.095 100.07Z" fill="white"/>
<path d="M61.92 78.5567C62.6169 77.5172 62.3392 76.1096 61.2997 75.4127C60.2603 74.7158 58.8527 74.9935 58.1558 76.0329C57.4589 77.0724 57.7366 78.48 58.776 79.1769C59.8155 79.8738 61.2231 79.5961 61.92 78.5567Z" fill="white"/>
<path d="M58.2479 84.505C58.9487 83.4663 58.6748 82.0562 57.636 81.3554C56.5973 80.6545 55.1872 80.9285 54.4864 81.9672C53.7856 83.0059 54.0595 84.416 55.0982 85.1168C56.1369 85.8176 57.547 85.5437 58.2479 84.505Z" fill="white"/>
<path d="M54.3302 89.8601C55.0271 88.8207 54.7494 87.4131 53.71 86.7162C52.6705 86.0193 51.2629 86.297 50.566 87.3364C49.8691 88.3759 50.1468 89.7835 51.1863 90.4804C52.2257 91.1773 53.6333 90.8996 54.3302 89.8601Z" fill="white"/>
<g opacity="0.5">
<path opacity="0.5" d="M187.01 280.663C188.201 280.279 188.855 279.002 188.471 277.811C188.087 276.62 186.811 275.965 185.62 276.349C184.428 276.733 183.774 278.01 184.158 279.201C184.542 280.392 185.818 281.046 187.01 280.663Z" fill="#3F5A7C"/>
<path opacity="0.5" d="M180.511 282.745C181.703 282.361 182.357 281.085 181.973 279.893C181.589 278.702 180.313 278.048 179.122 278.432C177.93 278.815 177.276 280.092 177.66 281.283C178.044 282.474 179.32 283.129 180.511 282.745Z" fill="#3F5A7C"/>
<path opacity="0.5" d="M174.029 284.839C175.22 284.455 175.874 283.178 175.49 281.987C175.107 280.796 173.83 280.142 172.639 280.525C171.448 280.909 170.793 282.186 171.177 283.377C171.561 284.568 172.838 285.223 174.029 284.839Z" fill="#3F5A7C"/>
<path opacity="0.5" d="M192.721 272.186C193.912 271.802 194.566 270.525 194.182 269.334C193.799 268.143 192.522 267.488 191.331 267.872C190.14 268.256 189.485 269.533 189.869 270.724C190.253 271.915 191.529 272.57 192.721 272.186Z" fill="#3F5A7C"/>
<path opacity="0.5" d="M186.238 274.28C187.429 273.896 188.083 272.619 187.7 271.428C187.316 270.237 186.039 269.582 184.848 269.966C183.657 270.35 183.002 271.627 183.386 272.818C183.77 274.009 185.047 274.663 186.238 274.28Z" fill="#3F5A7C"/>
<path opacity="0.5" d="M179.74 276.362C180.931 275.978 181.585 274.702 181.202 273.511C180.818 272.319 179.541 271.665 178.35 272.049C177.159 272.433 176.504 273.709 176.888 274.9C177.272 276.092 178.549 276.746 179.74 276.362Z" fill="#3F5A7C"/>
</g>
<path d="M49.311 180.029C50.5624 180.017 51.5671 178.993 51.5551 177.742C51.5431 176.49 50.5189 175.486 49.2675 175.498C48.0161 175.51 47.0114 176.534 47.0234 177.785C47.0354 179.037 48.0596 180.041 49.311 180.029Z" fill="white"/>
<path d="M49.3606 186.858C50.612 186.846 51.6167 185.822 51.6047 184.571C51.5927 183.319 50.5685 182.315 49.3171 182.327C48.0657 182.339 47.061 183.363 47.073 184.614C47.085 185.866 48.1092 186.87 49.3606 186.858Z" fill="white"/>
<path d="M49.426 193.671C50.6774 193.659 51.6821 192.635 51.6701 191.383C51.6581 190.132 50.6339 189.127 49.3825 189.139C48.1311 189.151 47.1264 190.176 47.1384 191.427C47.1504 192.678 48.1746 193.683 49.426 193.671Z" fill="white"/>
<path d="M28.7234 164.824H59.7128" stroke="#2E576D" stroke-miterlimit="10"/>
<path d="M62.2181 167.154C63.5048 167.154 64.5479 166.111 64.5479 164.824C64.5479 163.538 63.5048 162.495 62.2181 162.495C60.9314 162.495 59.8883 163.538 59.8883 164.824C59.8883 166.111 60.9314 167.154 62.2181 167.154Z" stroke="#2E576D" stroke-miterlimit="10"/>
<path d="M27.0638 158.41H52.7872" stroke="#2E576D" stroke-miterlimit="10"/>
<path d="M55.2926 160.739C56.5793 160.739 57.6223 159.696 57.6223 158.41C57.6223 157.123 56.5793 156.08 55.2926 156.08C54.0059 156.08 52.9628 157.123 52.9628 158.41C52.9628 159.696 54.0059 160.739 55.2926 160.739Z" stroke="#2E576D" stroke-miterlimit="10"/>
<path d="M27.0638 145.58H42.2713" stroke="#2E576D" stroke-miterlimit="10"/>
<path d="M44.7766 147.91C46.0633 147.91 47.1064 146.866 47.1064 145.58C47.1064 144.293 46.0633 143.25 44.7766 143.25C43.4899 143.25 42.4468 144.293 42.4468 145.58C42.4468 146.866 43.4899 147.91 44.7766 147.91Z" stroke="#2E576D" stroke-miterlimit="10"/>
<path d="M27.8936 151.995H58.9947" stroke="#2E576D" stroke-miterlimit="10"/>
<path d="M61.5 154.325C62.7867 154.325 63.8298 153.281 63.8298 151.995C63.8298 150.708 62.7867 149.665 61.5 149.665C60.2133 149.665 59.1702 150.708 59.1702 151.995C59.1702 153.281 60.2133 154.325 61.5 154.325Z" stroke="#2E576D" stroke-miterlimit="10"/>
<path d="M268.723 164.824H237.734" stroke="#2E576D" stroke-miterlimit="10"/>
<path d="M235.229 167.154C236.515 167.154 237.559 166.111 237.559 164.824C237.559 163.538 236.515 162.495 235.229 162.495C233.942 162.495 232.899 163.538 232.899 164.824C232.899 166.111 233.942 167.154 235.229 167.154Z" stroke="#2E576D" stroke-miterlimit="10"/>
<path d="M270.383 158.41H244.66" stroke="#2E576D" stroke-miterlimit="10"/>
<path d="M242.154 160.739C243.441 160.739 244.484 159.696 244.484 158.41C244.484 157.123 243.441 156.08 242.154 156.08C240.868 156.08 239.824 157.123 239.824 158.41C239.824 159.696 240.868 160.739 242.154 160.739Z" stroke="#2E576D" stroke-miterlimit="10"/>
<path d="M270.383 145.58H255.176" stroke="#2E576D" stroke-miterlimit="10"/>
<path d="M252.686 147.91C253.973 147.91 255.016 146.866 255.016 145.58C255.016 144.293 253.973 143.25 252.686 143.25C251.399 143.25 250.356 144.293 250.356 145.58C250.356 146.866 251.399 147.91 252.686 147.91Z" stroke="#2E576D" stroke-miterlimit="10"/>
<path d="M269.553 151.995H238.452" stroke="#2E576D" stroke-miterlimit="10"/>
<path d="M235.947 154.325C237.234 154.325 238.277 153.281 238.277 151.995C238.277 150.708 237.234 149.665 235.947 149.665C234.66 149.665 233.617 150.708 233.617 151.995C233.617 153.281 234.66 154.325 235.947 154.325Z" stroke="#2E576D" stroke-miterlimit="10"/>
<path d="M148.484 179.521V131.824L101.888 152.234L148.484 179.521Z" fill="#274B5B"/>
<path d="M148.484 128.537V72.5266L103.388 148.293L148.484 128.537Z" fill="#274B5B"/>
<path d="M151.484 72.5106V128.537L197.218 148.58L151.484 72.5106Z" fill="#274B5B"/>
<path d="M151.484 131.824V179.537L198.112 152.25L151.484 131.824Z" fill="#274B5B"/>
<path d="M148.484 227.489V189.128L102.191 162.032L148.484 227.489Z" fill="#274B5B"/>
<path d="M151.484 227.489L197.777 162.032L151.484 189.128V227.489Z" fill="#274B5B"/>
</g>
<defs>
<clipPath id="clip0_3_1419">
<rect width="300" height="300" fill="white"/>
</clipPath>
</defs>
</svg>
