<svg width="424" height="300" viewBox="0 0 424 300" fill="none" xmlns="http://www.w3.org/2000/svg">
<path d="M274 245.823C327.035 245.823 370.029 202.829 370.029 149.794C370.029 96.7585 327.035 53.765 274 53.765C220.965 53.765 177.971 96.7585 177.971 149.794C177.971 202.829 220.965 245.823 274 245.823Z" fill="#DBD4E9"/>
<path d="M301.913 116.895C301.913 112.874 299.126 110.507 297.567 110.507C294.355 110.507 292.697 112.047 291.897 113.231C291.897 109.441 291.897 107.142 291.897 102.924C291.897 85.3856 276.163 88.0474 269.404 87.9299C262.285 87.8062 245.439 88.734 245.439 103.326C245.439 105.825 245.864 108.911 246.334 112.287C245.377 111.361 243.849 110.507 241.458 110.507C239.899 110.507 237.111 112.874 237.111 116.895C237.111 127.575 243.936 129.971 247.47 130.497C247.406 138.359 249.031 148.307 268.734 148.307C289.14 148.307 291.577 138.272 291.86 130.447C295.466 129.829 301.913 127.274 301.913 116.895Z" fill="url(#paint0_linear_3_439)"/>
<path d="M281.588 152.592C281.588 151.287 281.588 148.629 281.588 146.375C278.394 147.583 274.212 148.309 268.736 148.309C264.103 148.309 260.47 147.759 257.625 146.816C257.625 149.796 257.625 154.249 257.625 156.208C257.625 172.542 251.466 175.621 248.922 175.621C246.963 175.621 246.109 177.136 246.109 177.629C246.109 178.563 248.847 179.153 249.858 179.369C255.239 180.524 259.88 184.456 271.278 184.456C278.146 184.456 293.369 183.408 293.369 177.627C293.369 174.701 281.588 173.61 281.588 152.592Z" fill="url(#paint1_linear_3_439)"/>
<path d="M293.369 172.431C291.858 172.431 289.977 172.4 287.911 172.355C290.705 175.256 293.369 176.233 293.369 177.625C293.369 183.404 278.148 184.454 271.278 184.454C259.88 184.454 255.239 180.522 249.858 179.367C248.847 179.15 246.109 178.561 246.109 177.627C246.109 177.134 246.963 175.619 248.922 175.619C250.12 175.619 252.12 174.934 253.901 172.505C211.546 175.839 170.825 193.94 170.825 234.165C170.825 241.763 172.396 254.144 193.722 254.144C211.006 254.144 242.435 248.532 275.21 248.532C301.474 248.532 338.291 254.144 352.433 254.144C359.303 254.144 371.066 253.247 371.066 233.94C371.066 195.33 327.965 172.431 293.369 172.431Z" fill="url(#paint2_linear_3_439)"/>
<path d="M290.903 73.5278C271.975 73.5278 264.431 82.301 257.138 82.301C253.606 82.301 251.899 79.1979 249.559 79.1979C246.28 79.1979 243.456 80.1711 243.456 86.2454C243.456 90.4515 244.953 92.0577 245.037 94.0454C245.184 97.4907 243.049 104.324 243.456 107.748C243.726 110.033 244.318 116.392 246.619 116.392C246.728 116.392 246.831 116.367 246.934 116.326C246.472 112.666 245.903 109.192 245.635 106.217C245.544 103.546 248.359 99.332 249.784 97.4165C252.967 93.132 257.689 97.4165 269.515 97.4165C281.505 97.4165 287.138 92.866 288.363 97.4165C289.068 100.037 291.544 101.588 291.899 104.054C292.264 106.598 291.499 115.639 292.052 114.353C293.247 111.565 294.899 106.256 294.899 100.579C294.899 97.5443 298.483 95.7134 298.483 88.9835C298.48 85.1856 301.056 73.5278 290.903 73.5278Z" fill="url(#paint3_linear_3_439)"/>
<path d="M281.468 96.0103C279.526 95.3093 277.421 91.1567 275.584 90.2144C272.466 88.6165 264.588 89.932 261.773 87.8454C260.53 86.9237 259.829 84.3072 259.017 82.1196C258.384 82.2371 257.761 82.301 257.138 82.301C253.606 82.301 251.899 79.1979 249.559 79.1979C246.28 79.1979 243.456 80.1711 243.456 86.2454C243.456 90.4515 244.953 92.0577 245.037 94.0454C245.184 97.4907 243.049 104.324 243.456 107.748C243.726 110.033 244.318 116.392 246.619 116.392C246.728 116.392 246.831 116.367 246.934 116.326C246.472 112.666 245.903 109.192 245.635 106.217C245.544 103.546 248.359 99.332 249.784 97.4165C252.967 93.132 257.689 97.4165 269.515 97.4165C274.588 97.4206 278.522 96.6041 281.468 96.0103Z" fill="url(#paint4_linear_3_439)"/>
<path d="M293.887 94.9608C292.379 93.9815 289.454 94.833 286.685 95.5258C287.518 95.7567 288.068 96.3237 288.363 97.4186C289.068 100.039 291.544 101.59 291.899 104.056C292.264 106.6 291.499 115.641 292.052 114.355C293.247 111.567 294.899 106.258 294.899 100.581C294.899 99.567 295.301 98.6846 295.835 97.7093C295.26 96.4392 294.608 95.431 293.887 94.9608Z" fill="url(#paint5_linear_3_439)"/>
<path d="M150 245.823C203.035 245.823 246.029 202.829 246.029 149.794C246.029 96.7585 203.035 53.765 150 53.765C96.9647 53.765 53.9711 96.7585 53.9711 149.794C53.9711 202.829 96.9647 245.823 150 245.823Z" fill="#D1E9D5"/>
<path d="M226.258 93.4495C226.258 85.6619 219.738 73.5278 210.682 73.5278C206.072 73.5278 199.445 83.4928 199.445 70.6351C199.445 68.4268 201.981 62.666 195.643 62.666C189.728 62.666 186.493 53.3279 180.577 53.3279C166.087 53.3279 162.006 40.833 154.86 40.833C142.726 40.833 135.664 54.2351 130.641 54.2351C123.732 54.2351 122.986 45.3608 112.301 45.3608C93.466 45.3608 95.4598 73.9753 82.4206 73.9753C75.8206 73.9753 64.4928 78.3217 64.4928 93.3526C64.4928 102.223 78.0742 112.188 78.0742 126.132C78.0742 130.788 73.365 139.495 73.365 144.151C73.365 149.256 78.0392 150.581 80.4268 150.581C87.1278 150.581 90.5382 147.685 94.0083 147.685C114.835 147.685 105.056 170.998 123.73 170.998C128.419 170.998 142.052 166.988 142.054 166.988C144.328 162.524 145.874 156.503 145.874 148.274C145.874 148.202 145.878 148.122 145.887 148.033C147.946 148.827 150.136 149.258 152.408 149.258C155.047 149.258 157.575 148.676 159.915 147.621C159.915 147.641 159.92 147.662 159.92 147.682C159.92 155.293 161.466 160.808 163.837 164.882C163.837 164.882 172.433 164.882 175.299 164.882C187.458 164.882 200.303 165.87 200.303 148.311C200.303 144.726 207.386 135.775 217.165 135.775C222.598 135.775 234.551 132.771 234.551 116.398C234.548 108.064 226.258 105.944 226.258 93.4495Z" fill="url(#paint6_linear_3_439)"/>
<path d="M210.212 137.311C210.212 137.311 199.219 135.577 197.161 132.806C190.808 124.254 200.085 101.998 191.431 95.7815C180.124 87.6578 158.142 107.973 145.874 101.388C138.406 97.3794 138.46 79.0475 132.031 73.5258C126.128 68.4557 106.326 74.8227 101.245 68.9279C98.1979 65.3918 101.198 50.3444 101.243 50.1176C93.4928 58.2536 92.0825 73.9732 82.4186 73.9732C75.8186 73.9732 64.4907 78.3196 64.4907 93.3505C64.4907 102.221 78.0722 112.186 78.0722 126.13C78.0722 130.786 73.3629 139.493 73.3629 144.148C73.3629 149.254 78.0371 150.579 80.4247 150.579C87.1258 150.579 90.5361 147.683 94.0062 147.683C114.833 147.683 105.054 170.996 123.728 170.996C128.416 170.996 142.049 166.986 142.052 166.986C144.326 162.522 145.872 156.501 145.872 148.272C145.872 148.2 145.876 148.12 145.885 148.031C147.944 148.825 150.134 149.256 152.406 149.256C155.045 149.256 157.573 148.674 159.913 147.619C159.913 147.639 159.918 147.66 159.918 147.68C159.918 155.291 161.464 160.806 163.835 164.88C163.835 164.88 172.431 164.88 175.297 164.88C187.456 164.88 200.301 165.868 200.301 148.309C200.301 145.645 204.204 140.031 210.212 137.311Z" fill="url(#paint7_linear_3_439)"/>
<path d="M180.577 124.225C180.577 121.441 177.823 119.804 176.28 119.804C175.369 119.804 174.649 119.891 174.078 120.031C173.056 106.433 163.744 95.7856 152.406 95.7856C141.027 95.7856 131.689 106.509 130.724 120.177C130.093 119.953 129.227 119.804 128.027 119.804C126.487 119.804 123.73 121.441 123.73 124.225C123.73 129.88 129.732 132.767 132.685 133.845C136.157 142.948 143.68 149.256 152.406 149.256C161.204 149.256 168.781 142.845 172.212 133.621C175.309 132.39 180.577 129.522 180.577 124.225Z" fill="url(#paint8_linear_3_439)"/>
<path d="M159.918 147.678C159.918 147.658 159.915 147.637 159.913 147.617C157.573 148.672 155.045 149.254 152.406 149.254C150.134 149.254 147.944 148.823 145.885 148.029C145.876 148.118 145.872 148.2 145.872 148.27C145.872 179.423 123.728 178.922 123.728 182.173C123.728 191.179 147.192 201.437 156.751 201.437C164.757 201.437 188.522 190.81 188.522 181.423C188.526 174.419 159.918 180.423 159.918 147.678Z" fill="url(#paint9_linear_3_439)"/>
<path d="M176.202 175.089C182.637 177.744 188.526 178.245 188.526 181.425C188.526 190.812 164.759 201.439 156.755 201.439C147.198 201.439 123.732 191.181 123.732 182.175C123.732 180.586 129.023 179.891 134.431 175.961C107.2 179.808 73.5237 192.548 73.5237 231.938C73.5237 251.724 91.5897 250.392 99.3546 249.524C116.392 247.621 150.726 246.775 167.868 246.775C200.66 246.775 234.551 254.835 234.551 233.035C234.548 194.808 219.351 178.452 176.202 175.089Z" fill="url(#paint10_linear_3_439)"/>
<defs>
<linearGradient id="paint0_linear_3_439" x1="269.512" y1="148.307" x2="269.512" y2="87.8463" gradientUnits="userSpaceOnUse">
<stop stop-color="#EDCDC7"/>
<stop offset="0.5" stop-color="#EDCDC7"/>
<stop offset="1" stop-color="#EEB4A4"/>
</linearGradient>
<linearGradient id="paint1_linear_3_439" x1="269.739" y1="184.455" x2="269.739" y2="146.374" gradientUnits="userSpaceOnUse">
<stop stop-color="#EDCDC7"/>
<stop offset="0.5" stop-color="#EDCDC7"/>
<stop offset="1" stop-color="#EEB4A4"/>
</linearGradient>
<linearGradient id="paint2_linear_3_439" x1="270.944" y1="254.145" x2="270.944" y2="172.356" gradientUnits="userSpaceOnUse">
<stop stop-color="#B07EB7"/>
<stop offset="0.5" stop-color="#8C3D96"/>
<stop offset="1" stop-color="#762A90"/>
</linearGradient>
<linearGradient id="paint3_linear_3_439" x1="271.088" y1="116.394" x2="271.088" y2="73.5287" gradientUnits="userSpaceOnUse">
<stop stop-color="#E5CA9B"/>
<stop offset="0.5" stop-color="#E0BF86"/>
<stop offset="1" stop-color="#D09F43"/>
</linearGradient>
<linearGradient id="paint4_linear_3_439" x1="262.436" y1="116.394" x2="262.436" y2="79.1986" gradientUnits="userSpaceOnUse">
<stop stop-color="#E5CA9B"/>
<stop offset="1" stop-color="#E0BF86"/>
</linearGradient>
<linearGradient id="paint5_linear_3_439" x1="291.258" y1="114.48" x2="291.258" y2="94.5185" gradientUnits="userSpaceOnUse">
<stop stop-color="#E5CA9B"/>
<stop offset="1" stop-color="#E0BF86"/>
</linearGradient>
<linearGradient id="paint6_linear_3_439" x1="149.52" y1="170.996" x2="149.52" y2="40.8341" gradientUnits="userSpaceOnUse">
<stop stop-color="#4A6876"/>
<stop offset="0.5393" stop-color="#0A3542"/>
<stop offset="1"/>
</linearGradient>
<linearGradient id="paint7_linear_3_439" x1="137.352" y1="170.996" x2="137.352" y2="50.12" gradientUnits="userSpaceOnUse">
<stop stop-color="#4A6876"/>
<stop offset="1" stop-color="#0A3542"/>
</linearGradient>
<linearGradient id="paint8_linear_3_439" x1="152.154" y1="149.253" x2="152.154" y2="95.7836" gradientUnits="userSpaceOnUse">
<stop offset="0.0112" stop-color="#B38974"/>
<stop offset="0.5" stop-color="#937061"/>
<stop offset="0.9944" stop-color="#6B4130"/>
</linearGradient>
<linearGradient id="paint9_linear_3_439" x1="156.128" y1="201.438" x2="156.128" y2="147.616" gradientUnits="userSpaceOnUse">
<stop offset="0.0112" stop-color="#B38974"/>
<stop offset="0.5" stop-color="#937061"/>
<stop offset="0.9944" stop-color="#6B4130"/>
</linearGradient>
<linearGradient id="paint10_linear_3_439" x1="154.036" y1="249.934" x2="154.036" y2="175.089" gradientUnits="userSpaceOnUse">
<stop stop-color="#D1E4A5"/>
<stop offset="0.5" stop-color="#ACD479"/>
<stop offset="1" stop-color="#76B83F"/>
</linearGradient>
</defs>
</svg>
